REM DIRINDEX 1\2,1\3,1\4,1\5
REM DIRNAME folder01,folder02,folder03,folder04,folder05
TITLE ""
FILE "1Q_t_1981-1990.mp3" MP3
  TRACK 01 AUDIO
    TITLE "3:cjc004_6851"
    INDEX 01 00:00:00
  TRACK 02 AUDIO
    TITLE "0:"
    INDEX 01 00:01:07
  TRACK 03 AUDIO
    TITLE "4:cjc004_6852"
    INDEX 01 00:01:36
  TRACK 04 AUDIO
    TITLE "0:"
    INDEX 01 00:02:63
  TRACK 05 AUDIO
    TITLE "5:cjc004_6853"
    INDEX 01 00:03:12
  TRACK 06 AUDIO
    TITLE "0:"
    INDEX 01 00:08:07
  TRACK 07 AUDIO
    TITLE "3:cjc004_6854"
    INDEX 01 00:08:60
  TRACK 08 AUDIO
    TITLE "0:"
    INDEX 01 00:09:71
  TRACK 09 AUDIO
    TITLE "4:cjc004_6855"
    INDEX 01 00:10:21
  TRACK 10 AUDIO
    TITLE "0:"
    INDEX 01 00:11:56
  TRACK 11 AUDIO
    TITLE "5:cjc004_6856"
    INDEX 01 00:12:05
  TRACK 12 AUDIO
    TITLE "0:"
    INDEX 01 00:16:48
  TRACK 13 AUDIO
    TITLE "3:cjc004_6857"
    INDEX 01 00:17:27
  TRACK 14 AUDIO
    TITLE "0:"
    INDEX 01 00:18:50
  TRACK 15 AUDIO
    TITLE "4:cjc004_6858"
    INDEX 01 00:18:74
  TRACK 16 AUDIO
    TITLE "0:"
    INDEX 01 00:20:32
  TRACK 17 AUDIO
    TITLE "5:cjc004_6859"
    INDEX 01 00:20:51
  TRACK 18 AUDIO
    TITLE "0:"
    INDEX 01 00:25:19
  TRACK 19 AUDIO
    TITLE "3:cjc004_6860"
    INDEX 01 00:25:68
  TRACK 20 AUDIO
    TITLE "0:"
    INDEX 01 00:27:08
  TRACK 21 AUDIO
    TITLE "4:cjc004_6861"
    INDEX 01 00:27:34
  TRACK 22 AUDIO
    TITLE "0:"
    INDEX 01 00:28:39
  TRACK 23 AUDIO
    TITLE "5:cjc004_6862"
    INDEX 01 00:28:62
  TRACK 24 AUDIO
    TITLE "0:"
    INDEX 01 00:33:40
  TRACK 25 AUDIO
    TITLE "3:cjc004_6863"
    INDEX 01 00:34:18
  TRACK 26 AUDIO
    TITLE "0:"
    INDEX 01 00:35:37
  TRACK 27 AUDIO
    TITLE "4:cjc004_6864"
    INDEX 01 00:35:63
  TRACK 28 AUDIO
    TITLE "0:"
    INDEX 01 00:36:68
  TRACK 29 AUDIO
    TITLE "5:cjc004_6865"
    INDEX 01 00:37:16
  TRACK 30 AUDIO
    TITLE "0:"
    INDEX 01 00:42:18
  TRACK 31 AUDIO
    TITLE "3:cjc004_6866"
    INDEX 01 00:42:70
  TRACK 32 AUDIO
    TITLE "0:"
    INDEX 01 00:44:16
  TRACK 33 AUDIO
    TITLE "4:cjc004_6867"
    INDEX 01 00:44:38
  TRACK 34 AUDIO
    TITLE "0:"
    INDEX 01 00:46:06
  TRACK 35 AUDIO
    TITLE "5:cjc004_6868"
    INDEX 01 00:46:31
  TRACK 36 AUDIO
    TITLE "0:"
    INDEX 01 00:50:44
  TRACK 37 AUDIO
    TITLE "3:cjc004_6869"
    INDEX 01 00:51:18
  TRACK 38 AUDIO
    TITLE "0:"
    INDEX 01 00:52:59
  TRACK 39 AUDIO
    TITLE "4:cjc004_6870"
    INDEX 01 00:53:11
  TRACK 40 AUDIO
    TITLE "0:"
    INDEX 01 00:54:42
  TRACK 41 AUDIO
    TITLE "5:cjc004_6871"
    INDEX 01 00:54:62
  TRACK 42 AUDIO
    TITLE "0:"
    INDEX 01 01:00:19
  TRACK 43 AUDIO
    TITLE "3:cjc004_6872"
    INDEX 01 01:00:68
  TRACK 44 AUDIO
    TITLE "0:"
    INDEX 01 01:02:22
  TRACK 45 AUDIO
    TITLE "4:cjc004_6873"
    INDEX 01 01:02:50
  TRACK 46 AUDIO
    TITLE "0:"
    INDEX 01 01:03:63
  TRACK 47 AUDIO
    TITLE "5:cjc004_6874"
    INDEX 01 01:04:11
  TRACK 48 AUDIO
    TITLE "0:"
    INDEX 01 01:08:19
  TRACK 49 AUDIO
    TITLE "3:cjc004_6875"
    INDEX 01 01:08:68
  TRACK 50 AUDIO
    TITLE "0:"
    INDEX 01 01:10:16
  TRACK 51 AUDIO
    TITLE "4:cjc004_6876"
    INDEX 01 01:10:45
  TRACK 52 AUDIO
    TITLE "0:"
    INDEX 01 01:12:50
  TRACK 53 AUDIO
    TITLE "5:cjc004_6877"
    INDEX 01 01:12:73
  TRACK 54 AUDIO
    TITLE "0:"
    INDEX 01 01:17:32
  TRACK 55 AUDIO
    TITLE "3:cjc004_6878"
    INDEX 01 01:18:07
  TRACK 56 AUDIO
    TITLE "0:"
    INDEX 01 01:19:17
  TRACK 57 AUDIO
    TITLE "4:cjc004_6879"
    INDEX 01 01:19:40
  TRACK 58 AUDIO
    TITLE "0:"
    INDEX 01 01:21:00
  TRACK 59 AUDIO
    TITLE "5:cjc004_6880"
    INDEX 01 01:21:21
  TRACK 60 AUDIO
    TITLE "0:"
    INDEX 01 01:25:58
